Patient4_TMGait_0pt3_03_right_26_EMG.mot
version=1
nRows=30
nColumns=33
inDegrees=no
endheader
time	1LAddLong	2LGlutMax	3LGlutMed	4LIliopsoas	5LSemiMemb	6LBicFemLong	7LRecFem	8LVastMed	9LVastLat	10LGasMed	11LTibAnt	12lTibPost	13LPeroneusLong	14LSol	15LExtDigLong	16LFlexDigLong	17RAddLong	18RGlutMax	19RGlutMed	20RIliopsoas	21RSemiMemb	22RBicFemLong	23RRecFem	24RVastMed	25RVastLat	26RGasMed	27RTibAnt	28RTibPost	29RPeroneusLong	30RSol	31RExtDigLong	32RFlexDigLong
49.84	0.0383	0.023956	0.10498	-0.003052	0.047455	0.007935	0.003204	0.010071	-0.036774	0.006104	-0.087891	0.033417	0.066376	-0.038757	-0.18814	0.032654	0.001831	0.044708	0.13794	0.025024	0.007935	0.011597	-0.057831	0.024109	0.024719	-0.028229	-0.98908	-0.004272	1.1044	0.22339	0.001373	-0.017395
49.841	-0.056763	-0.02121	0.029449	0.006104	0.046234	0.012512	-0.046997	0.008545	-0.051727	0.005341	-0.05188	0.035858	0.075684	-0.078125	0.10391	0.030365	-0.004578	0.080261	0.14984	0.027618	0.011139	-0.006714	-0.064087	0.029144	0.024109	-0.030365	-1.6655	-0.007019	0.25864	0.26855	-0.001984	-0.021057
49.842	0.027161	-0.087585	-0.018768	0.011292	0.011902	0.037842	0.004425	0.00824	-0.05249	-0.001068	-0.070343	0.037537	0.060425	-0.11612	-0.13458	0.013885	-0.001068	0.12909	0.20966	0.06134	0.011597	0.015717	-0.090942	-0.032501	0.010071	-0.023193	-1.0342	0.001068	-0.13473	0.15808	0.003204	-0.022888
49.843	-0.017548	-0.17288	-0.064087	0.000916	-0.027313	0.072479	-0.028992	0.007935	0.076904	-0.031738	-0.12955	0.039978	0.10208	-0.12726	0.033417	0.016785	-0.003662	0.075836	0.19592	0.103	0.010223	0.00946	-0.094604	-0.091248	0.018768	-0.010529	-0.40863	-0.00351	-0.42786	0.049591	0.001068	-0.019531
49.844	-0.001221	-0.16495	0.003815	-0.000458	0.024109	0.06485	-0.0383	0.00473	0.11414	-0.024567	-0.12375	0.024567	0.13458	-0.091553	0.19791	0.025482	-0.002747	0.055389	0.19867	0.066681	0.005188	0.023041	0.088959	-0.10223	-0.084839	0.009003	0.41367	0.000305	-0.51743	-0.048523	-0.001068	-0.00061
49.845	0.014191	-0.15503	0.002747	0.01236	0.001068	0.044403	-0.032806	0.010986	0.081329	-0.012207	-0.075836	0.022125	0.058441	-0.040283	0.16205	0.007172	0.000153	0.072937	0.18829	0.048828	-0.000153	0.022278	-0.046387	-0.103	-0.19577	0.00946	1.1366	-0.005951	-0.23941	-0.071259	-0.001526	-0.014343
49.846	0.031281	-0.15381	0.001526	0.001221	0.011292	-0.014496	-0.013275	0.00412	0.017395	-0.020447	-0.050964	0.032959	0.061493	0.024109	-0.014801	0.022125	-0.009003	0.10666	0.20523	0.027161	0.014954	0.002594	-0.089111	-0.11566	-0.15869	-0.003662	0.71137	-0.005035	0.6041	0.045776	-0.004578	-0.024719
49.847	0.021515	-0.1593	0.000458	0.000153	0.051727	0.008392	0.042267	0.003662	-0.024414	-0.020599	0.062714	0.03479	0.066528	-0.032349	-0.062103	0.007629	0.008392	0.12192	0.18555	-0.011139	0.006409	0.003967	-0.17136	-0.12222	-0.062256	-0.016022	0.58838	0	0.26764	0.083466	-0.001068	-0.029297
49.848	0.015564	-0.1239	0.012817	-0.003357	0.072632	-0.019836	0.10727	0.00885	-0.090332	-0.015564	0.11246	0.018311	0.018616	-0.077972	-0.053406	0.002747	0.001373	0.070648	0.087585	-0.027618	0.002594	-0.007019	-0.25269	-0.15472	0.022125	-0.013428	0.45944	0.001984	-0.20187	0.075531	-0.002594	-0.021362
49.849	0.009613	-0.091248	0.014343	0.011597	0.043335	-0.079803	0.15259	0.005646	-0.081787	-0.016632	0.11581	0.02655	0.008698	-0.064392	-0.027313	-0.007935	-0.007935	0.052338	0.15335	-0.028534	0.01709	0.015869	-0.48843	0.13153	0.20279	-0.007629	0.2948	-0.002747	-0.65369	0.25162	-0.000763	-0.027008
49.85	-0.006256	-0.081329	-0.001526	0.010681	0.039978	-0.082092	0.17944	0.014648	-0.07843	-0.01709	-0.030823	0.019684	0.020447	-0.042267	0.063782	0.00061	0.006866	0.036469	0.13443	-0.018463	0.01297	0.001373	-0.31326	0.18448	0.19562	-0.017242	0.12131	-0.004578	-0.00473	0.36453	0.002289	-0.028687
49.851	-0.002747	-0.084229	0.009918	0.005951	0.036926	-0.031433	0.11704	0.02655	-0.10651	-0.003815	0.007782	0.020599	0.006561	-0.024872	0.053558	0.003204	0.02533	0.069885	0.21316	-0.006561	0.027466	-0.015259	-0.092468	0.061646	0.13596	-0.016785	-0.30853	-0.00412	0.28366	0.22369	0.003357	-0.022583
49.852	0.002747	-0.083771	0.02243	0.011597	0.016174	0.012512	0.045166	0.014038	-0.033569	-0.001068	-0.051575	0.019836	0.01358	0.063324	0.11459	-0.002594	0.003815	0.052795	0.24674	0.005035	0.010834	0.01236	-0.078278	0.016327	0.025177	-0.011444	-0.55237	-0.00946	-0.031586	0.14267	-0.003357	-0.024872
49.853	0.001068	-0.12848	0.008698	0.00946	0.003662	0.099335	0.063171	0.016327	-0.03418	-0.015259	-0.073547	0.007629	0.011749	0.056915	0.23819	-0.00946	-0.000763	0.013123	0.26627	-0.056305	-0.040894	0.044861	-0.27374	-0.018463	-0.002441	-0.011139	0.14313	-0.011139	0.041809	0.12299	-0.000458	-0.02243
49.854	-0.014038	-0.11261	-0.03479	0.012817	-0.057373	0.076599	0.003662	0.007324	0	0.002289	-0.005646	0.010223	-0.027161	0.077972	0.18906	-0.019226	-0.00885	0.00351	0.24765	-0.059052	-0.086975	0.037079	-0.33188	0.004578	-0.049133	0.001678	0.55069	-0.00351	0.30182	0.023041	0.005341	-0.00351
49.855	-0.012207	-0.078583	-0.091553	0.021973	-0.10178	0.020905	-0.062256	0.012817	0.074615	-0.013428	-0.1178	0.008698	-0.010681	0.086975	0.088654	-0.00885	0.001068	0.13901	0.17364	-0.069275	0.049744	-0.032349	-0.15305	-0.00061	-0.012054	-0.00351	0.62225	-0.000305	0.30548	-0.006714	-0.001373	-0.01236
49.856	-0.021667	-0.076752	-0.15595	0.016785	-0.016937	0.054779	-0.11932	0.016937	0.11353	-0.006409	-0.13123	-0.002747	-0.010376	0.091858	-0.020142	-0.02655	0.003967	0.10681	-0.023804	-0.058899	0.04425	-0.019226	-0.010071	-0.010834	-0.079956	-0.016937	0.39276	-0.003204	0.15945	0.038452	0.006561	-0.016022
49.857	-0.038605	-0.077362	-0.17441	0.005035	0.049744	0.11719	-0.12161	0.017548	0.14679	0.006256	-0.22903	0.001526	-0.007172	0.10468	-0.006714	-0.038757	-0.009003	0.018768	-0.056763	-0.037537	0.021362	-0.003357	-0.045166	-0.008392	-0.039673	-0.013123	-0.06485	-0.000763	-0.034027	0.022736	0.003204	-0.019684
49.858	-0.063019	-0.05661	-0.21683	0.002441	-0.049896	0.17838	-0.068054	0.028839	0.098724	-0.004578	-0.19943	-0.013428	-0.043488	0.1149	0.016632	-0.027771	-0.002594	-0.005493	0.1445	-0.11276	0.011749	-0.009613	-0.088196	0.015564	-0.001831	-0.00885	-0.15137	-0.005798	-0.24872	0.059204	0.009003	-0.015259
49.859	-0.088654	-0.02243	-0.15503	0.003967	-0.11169	0.2063	0.036469	0.029449	0.036621	-0.000305	-0.13275	-0.006561	-0.070801	0.14313	0.027618	-0.034027	0.002441	0.04715	0.072174	-0.12375	0.023651	-0.005798	-0.12726	-0.035095	0.043335	-0.005798	0.056458	0.026245	-0.1857	0.058594	0.009155	-0.019836
49.86	-0.10193	-0.043488	-0.177	0.004425	-0.15518	0.13962	0.010071	0.027771	-0.016785	-0.032349	-0.028076	-0.015259	-0.000153	0.14618	-0.014954	-0.037994	0.016327	0.069122	-0.016327	-0.07309	0.000916	-0.007324	-0.068207	-0.016937	0.014648	-0.01297	0.17792	0.062714	-0.010529	0.041504	0.010071	-0.013885
49.861	-0.089417	0.006714	-0.12085	-0.002899	-0.18951	-0.084991	-0.042725	0.014343	0.036316	-0.022125	0.15411	-0.024109	-0.042419	0.18799	0.003052	-0.049286	0.006866	0.086823	0.015259	-0.010376	0.016022	-0.00824	-0.037842	0.009155	0.050964	-0.00885	0.16251	-0.20828	-0.13351	0.018463	0.004883	-0.02243
49.862	-0.012207	0.080719	-0.062103	-0.013733	-0.045319	-0.32761	-0.10559	0.005035	0.05188	-0.022888	0.17334	-0.023041	-0.090027	0.21622	0.027618	-0.045624	0.013885	0.0737	0.15442	0.10742	0.025787	-0.01297	-0.053406	0.042114	0.033875	-0.007172	0.015717	0.026245	-0.092773	0.026245	0.012512	-0.0177
49.863	0.030823	0.11429	-0.094147	-0.005341	0.15625	-0.31525	-0.12878	-0.005798	0.011444	-0.042114	0.15961	-0.029755	-0.086517	0.18036	0.31784	-0.048065	0.014954	0.035706	0.095673	0.15396	0.006409	-0.01236	-0.055542	0.019531	-0.017242	-0.001678	0.046387	0.049133	0.035706	0.023651	0.009308	-0.014038
49.864	0.041809	0.069885	-0.087891	0.00885	0.18478	-0.054321	-0.09552	-0.011749	0.005341	-0.046692	0.11795	-0.036163	-0.088348	0.16022	0.089264	-0.046082	0.008698	0.00824	0.03418	0.11429	0.011292	-0.008545	-0.031586	-0.058289	-0.12054	-0.009766	-0.25559	0.020905	-0.11078	-0.059967	0.010223	-0.026093
49.865	0.046692	0.064697	-0.1387	-0.001526	0.1178	-0.000458	-0.065613	-0.002899	0.058441	-0.056915	0.2182	-0.028839	-0.1062	0.20798	0.61432	-0.052032	0.007629	0.020294	0.028534	0.14557	0.011292	-0.012512	-0.0737	-0.10696	-0.14236	-0.004883	-0.26642	0.003815	-0.17288	-0.13077	-0.001526	-0.018616
49.866	0.057678	0.11643	-0.16708	0.006256	0.064545	-0.009918	-0.072479	0.00946	0.07782	-0.063629	-0.005341	-0.041046	-0.14771	0.23285	-0.052185	-0.051117	0.00473	0.036011	-0.039673	0.16525	0.015564	-0.033264	-0.099335	-0.093842	-0.022736	-0.012817	-0.16312	-0.004425	-0.14038	-0.084839	0.008698	-0.033264
49.867	0.062256	0.18936	-0.20493	0.010986	0.052185	-0.025787	-0.092468	0.042419	0.1767	-0.044403	-0.077209	-0.035248	-0.15366	0.21316	-0.12756	-0.064545	0.010986	-0.050049	0.15839	0.10284	0.00473	-0.039978	-0.049591	-0.036469	0.018768	-0.010376	-0.16251	-0.003357	-0.10941	-0.004425	0.008392	-0.0177
49.868	0.055542	0.21637	-0.20615	0.009003	0.071564	-0.096588	-0.1265	0.039368	0.23071	-0.055237	-0.014191	-0.036621	-0.19821	0.12222	-0.081329	-0.068512	0.021362	-0.080261	0.13092	0.063782	0.002136	-0.044861	0.049591	0.010529	-0.017242	-0.014038	-0.060272	-0.001373	-0.14191	0.011902	0.001831	-0.009613
49.869	0.041809	0.20844	-0.2153	-0.001526	0.049286	-0.017395	-0.15717	0.033112	0.15564	-0.08728	0.07782	-0.042725	-0.15778	0.12207	-0.16708	-0.053558	0.018311	-0.050049	0.15411	0.050659	0.006561	-0.06073	0.049286	-0.008545	-0.063782	-0.016785	0.14435	-0.00351	-0.14511	-0.009613	0.007019	-0.008698
